<?xml version="1.0" encoding="UTF-8" standalone="no"?>
<svg
   xmlns:dc="http://purl.org/dc/elements/1.1/"
   xmlns:cc="http://creativecommons.org/ns#"
   xmlns:rdf="http://www.w3.org/1999/02/22-rdf-syntax-ns#"
   xmlns:svg="http://www.w3.org/2000/svg"
   xmlns="http://www.w3.org/2000/svg"
   version="1.1"
   id="svg2"
   xml:space="preserve"><metadata
     id="metadata8"><rdf:RDF><cc:Work
         rdf:about=""><dc:format>image/svg+xml</dc:format><dc:type
           rdf:resource="http://purl.org/dc/dcmitype/StillImage" /></cc:Work></rdf:RDF></metadata><defs
     id="defs6" /><g
     id="g10"
     transform="matrix(1.3333333,0,0,-1.3333333,0,161.05333)"><g
       id="g12"
       transform="scale(0.1)"><path
         d="M 1604.1,874.645 1740.47,509.578 H 1462.83 L 1604.1,874.645 Z M 1284.97,230.301 h 72.13 l 84.98,221.402 h 321.14 l 85.97,-221.402 h 72.12 l -276.67,712.215 h -75.12 L 1284.97,230.301 v 0"
         style="fill:#646162;fill-opacity:1;fill-rule:nonzero;stroke:none"
         id="path14" /><path
         d="m 1945.52,230.301 h 62.23 v 712.215 h -62.23 V 230.301"
         style="fill:#646162;fill-opacity:1;fill-rule:nonzero;stroke:none"
         id="path16" /><path
         d="m 2274.32,744.988 h -100.75 v 44.883 c 0,13.981 0.31,26.945 0.98,38.895 0.65,12.004 3.12,22.461 7.4,31.453 4.27,8.961 11.02,16.109 20.24,21.445 9.22,5.309 22.4,7.981 39.55,7.981 7.22,0 14.49,-0.508 21.75,-1.497 7.19,-1 15.11,-2.164 23.66,-3.496 v 53.844 c -9.87,1.332 -18.73,2.363 -26.63,2.969 -7.93,0.668 -16.49,1.051 -25.72,1.051 -25.03,0 -45.62,-3.688 -61.76,-10.981 -16.15,-7.308 -28.84,-17.621 -38.04,-30.902 -9.23,-13.344 -15.45,-29.297 -18.78,-47.879 -3.28,-18.637 -4.95,-38.926 -4.95,-60.863 v -46.903 h -86.93 v -52.836 h 86.93 V 230.301 h 62.3 v 461.851 h 100.75 v 52.836"
         style="fill:#646162;fill-opacity:1;fill-rule:nonzero;stroke:none"
         id="path18" /><path
         d="m 2293.76,230.301 h 62.26 v 270.113 c 0,26.164 4.59,50.758 13.85,73.684 9.2,22.922 22.21,42.543 39,58.937 16.85,16.363 36.76,28.996 59.8,37.844 23.04,8.867 48.74,12.582 77.05,11.312 v 62.797 c -46.09,2.004 -85.79,-7.113 -119.06,-27.414 -33.25,-20.324 -57.77,-51.363 -73.61,-93.277 h -1.96 v 120.691 h -57.33 V 230.301"
         style="fill:#646162;fill-opacity:1;fill-rule:nonzero;stroke:none"
         id="path20" /><path
         d="m 2575.48,523.574 c 2.63,21.387 8.04,42.274 16.32,62.692 8.24,20.527 19.22,38.558 33.07,54.093 13.84,15.551 30.63,28.106 50.45,37.528 19.72,9.48 42.43,14.265 68.14,14.265 25.03,0 47.41,-4.785 67.2,-14.265 19.77,-9.422 36.57,-21.977 50.39,-37.528 13.8,-15.535 24.52,-33.476 32.09,-53.554 7.58,-20.207 11.7,-41.274 12.38,-63.231 h -330.04 z m 392.27,-52.902 c 1.33,34.031 -1.97,67.629 -9.9,100.723 -7.85,33.14 -20.87,62.453 -39.01,88.015 -18.12,25.512 -41.63,46.18 -70.66,61.957 -28.96,15.762 -63.88,23.621 -104.72,23.621 -40.84,0 -75.76,-7.386 -104.75,-22.14 -28.98,-14.762 -52.71,-34.239 -71.15,-58.469 -18.4,-24.16 -32.1,-51.664 -41.02,-82.465 -8.85,-30.84 -13.32,-62.23 -13.32,-94.273 0,-34.555 4.47,-67.391 13.32,-98.5 8.92,-31.106 22.62,-58.45 41.02,-82.043 18.44,-23.559 42.17,-42.227 71.15,-56.063 28.99,-13.867 63.91,-20.734 104.75,-20.734 64.54,0 114.43,16.109 149.68,48.359 35.27,32.25 59.48,77.656 72.64,136.184 h -62.24 c -9.89,-39.27 -27.66,-71.012 -53.35,-95.289 -25.7,-24.242 -61.27,-36.395 -106.73,-36.395 -29.63,0 -55.15,5.828 -76.59,17.504 -21.4,11.707 -38.71,26.531 -51.88,44.375 -13.17,17.84 -23.06,37.906 -29.6,60.066 -6.64,22.18 -9.91,44.024 -9.91,65.567 h 392.27 v 0"
         style="fill:#646162;fill-opacity:1;fill-rule:nonzero;stroke:none"
         id="path22" /><path
         d="m 3380.44,594.371 c -1.32,27.91 -6.92,52.199 -16.79,72.82 -9.89,20.59 -23.22,37.891 -39.98,51.856 -16.82,13.98 -36.28,24.293 -58.34,30.918 -22.08,6.672 -45.97,10.004 -71.64,10.004 -22.38,0 -44.94,-2.664 -67.68,-7.973 -22.73,-5.336 -43.3,-13.676 -61.71,-24.976 -18.52,-11.278 -33.5,-26.274 -45,-44.829 -11.53,-18.652 -17.33,-40.972 -17.33,-66.882 0,-21.961 3.62,-40.403 10.87,-55.383 7.25,-14.938 17.33,-27.582 30.13,-37.875 12.85,-10.328 27.85,-18.957 45,-25.957 17.12,-6.965 35.88,-13.11 56.31,-18.434 l 80.06,-17.949 c 13.8,-3.367 27.5,-7.293 40.99,-11.977 13.52,-4.644 25.53,-10.453 36.1,-17.461 10.53,-6.976 18.9,-15.777 25.17,-26.421 6.26,-10.629 9.42,-23.258 9.42,-37.942 0,-17.933 -4.5,-33.074 -13.33,-45.355 -8.94,-12.344 -20.33,-22.446 -34.11,-30.453 -13.85,-7.93 -29.03,-13.598 -45.47,-16.891 -16.45,-3.383 -31.97,-5.031 -46.47,-5.031 -41.5,0 -76.22,10.8 -104.24,32.425 -27.99,21.622 -43.32,53.711 -45.98,96.254 h -62.26 c 5.29,-63.211 26.56,-109.254 63.77,-138.148 37.25,-28.918 85.82,-43.375 145.76,-43.375 23.73,0 47.76,2.797 72.13,8.437 24.37,5.668 46.29,14.614 65.7,26.957 19.44,12.301 35.39,28.25 47.95,47.918 12.48,19.602 18.76,43.34 18.76,71.27 0,22.656 -4.27,42.258 -12.84,58.91 -8.55,16.582 -19.59,30.531 -33.1,41.844 -13.5,11.297 -28.98,20.461 -46.45,27.453 -17.42,6.957 -35.11,11.82 -52.85,14.457 l -83.02,18.969 c -10.54,2.637 -22.04,6.113 -34.58,10.457 -12.51,4.285 -24.06,9.812 -34.57,16.488 -10.55,6.578 -19.3,14.742 -26.23,24.402 -6.9,9.625 -10.29,21.446 -10.29,35.411 0,16.57 3.55,30.617 10.8,41.894 7.2,11.328 16.81,20.461 28.71,27.453 11.8,6.957 24.82,11.914 38.98,14.949 14.18,3.02 28.19,4.465 42.01,4.465 17.78,0 34.56,-2.101 50.41,-6.484 15.75,-4.289 29.81,-11.09 41.97,-20.445 12.18,-9.262 21.91,-21.082 29.16,-35.411 7.25,-14.265 11.16,-31.058 11.84,-50.359 h 62.26 v 0"
         style="fill:#646162;fill-opacity:1;fill-rule:nonzero;stroke:none"
         id="path24" /><path
         d="m 3850.21,568.441 c -7.24,59.196 -29.82,103.422 -67.71,132.653 -37.93,29.265 -84.18,43.894 -138.83,43.894 -38.9,0 -73.3,-6.875 -103.28,-20.73 -29.98,-13.82 -55.2,-32.379 -75.61,-55.602 -20.4,-23.289 -35.85,-50.621 -46.41,-82.039 -10.54,-31.414 -15.82,-64.41 -15.82,-98.976 0,-35.192 5.28,-68.317 15.82,-99.453 10.56,-31.11 26.01,-58.278 46.41,-81.547 20.41,-23.278 45.63,-41.77 75.61,-55.606 29.98,-13.867 64.38,-20.734 103.28,-20.734 57.3,0 104.53,17.637 141.76,52.859 37.25,35.238 60.14,84.106 68.69,146.621 h -62.24 c -1.96,-21.289 -7.27,-40.894 -15.83,-58.828 -8.58,-17.969 -19.45,-33.414 -32.55,-46.406 -13.2,-12.965 -28.39,-23.133 -45.49,-30.41 -17.09,-7.34 -35.26,-10.977 -54.34,-10.977 -29.67,0 -55.7,5.891 -78.1,17.617 -22.42,11.77 -40.98,27.278 -55.8,46.504 -14.82,19.203 -26.01,41.082 -33.62,65.5 -7.56,24.512 -11.37,49.469 -11.37,74.86 0,25.433 3.81,50.328 11.37,74.839 7.61,24.418 18.8,46.297 33.62,65.504 14.82,19.223 33.38,34.711 55.8,46.489 22.4,11.8 48.43,17.679 78.1,17.679 40.81,0 72.95,-10.98 96.31,-32.906 23.45,-21.984 39.37,-52.234 47.95,-90.805 h 62.28 v 0"
         style="fill:#646162;fill-opacity:1;fill-rule:nonzero;stroke:none"
         id="path26" /><path
         d="m 4117.58,692.152 c 29.65,0 55.7,-5.879 78.06,-17.679 22.41,-11.778 41,-27.266 55.86,-46.489 14.81,-19.207 26.02,-41.086 33.6,-65.504 7.54,-24.511 11.38,-49.406 11.38,-74.839 0,-25.391 -3.84,-50.348 -11.38,-74.86 -7.58,-24.418 -18.79,-46.297 -33.6,-65.5 -14.86,-19.226 -33.45,-34.734 -55.86,-46.504 -22.36,-11.726 -48.41,-17.617 -78.06,-17.617 -29.64,0 -55.67,5.891 -78.03,17.617 -22.41,11.77 -41.01,27.278 -55.9,46.504 -14.74,19.203 -25.98,41.082 -33.54,65.5 -7.57,24.512 -11.34,49.469 -11.34,74.86 0,25.433 3.77,50.328 11.34,74.839 7.56,24.418 18.8,46.297 33.54,65.504 14.89,19.223 33.49,34.711 55.9,46.489 22.36,11.8 48.39,17.679 78.03,17.679 z m 0,52.836 c -38.85,0 -73.26,-6.875 -103.26,-20.73 -29.95,-13.82 -55.18,-32.379 -75.55,-55.602 -20.47,-23.289 -35.92,-50.621 -46.47,-82.039 -10.52,-31.414 -15.82,-64.41 -15.82,-98.976 0,-35.192 5.3,-68.317 15.82,-99.453 10.55,-31.11 26,-58.278 46.47,-81.547 20.37,-23.278 45.6,-41.77 75.55,-55.606 30,-13.867 64.41,-20.734 103.26,-20.734 38.9,0 73.32,6.867 103.28,20.734 29.98,13.836 55.18,32.328 75.62,55.606 20.4,23.269 35.88,50.437 46.41,81.547 10.53,31.136 15.82,64.261 15.82,99.453 0,34.566 -5.29,67.562 -15.82,98.976 -10.53,31.418 -26.01,58.75 -46.41,82.039 -20.44,23.223 -45.64,41.782 -75.62,55.602 -29.96,13.855 -64.38,20.73 -103.28,20.73 v 0"
         style="fill:#646162;fill-opacity:1;fill-rule:nonzero;stroke:none"
         id="path28" /><path
         d="m 4395.58,713.359 c 8.54,0 16.9,0.274 16.9,10.043 0,8.004 -6.57,9.879 -13.35,9.879 h -12.67 v -19.922 z m -9.12,-31.484 h -6.98 v 57.41 h 21.57 c 12.72,0 18.36,-5.59 18.36,-15.883 0,-10.183 -6.55,-14.711 -14.12,-16.015 l 16.72,-25.512 h -8.06 l -15.88,25.512 h -11.61 z m -30.39,28.719 c 0,-23.766 17.49,-42.606 41.1,-42.606 23.57,0 41.13,18.84 41.13,42.606 0,23.722 -17.56,42.551 -41.13,42.551 -23.61,0 -41.1,-18.829 -41.1,-42.551 z m 89.78,0 c 0,-27.93 -21.17,-49.66 -48.68,-49.66 -27.52,0 -48.71,21.73 -48.71,49.66 0,27.851 21.19,49.648 48.71,49.648 27.51,0 48.68,-21.797 48.68,-49.648"
         style="fill:#646162;fill-opacity:1;fill-rule:nonzero;stroke:none"
         id="path30" /><path
         d="m 592.25,603.637 -167.047,170.523 -6.062,6.211 c -95.743,97.965 -251.77,97.965 -347.0512,0.379 -96.0625,-97.508 -96.0625,-256.082 0,-353.699 95.2812,-97.875 250.8942,-97.875 346.6012,0 L 592.25,603.637"
         style="fill:#ffffff;fill-opacity:1;fill-rule:nonzero;stroke:none"
         id="path32" /><path
         d="M 592.25,603.867 V 363.004 l 0.352,-8.859 c 0,-138.09 -109.993,-250.704 -245.59,-250.704 -135.602,0 -245.582,111.907 -245.582,250.004 0,138.262 110.39,250.422 245.582,250.422 H 592.25"
         style="fill:#ffffff;fill-opacity:1;fill-rule:nonzero;stroke:none"
         id="path34" /><path
         d="M 592.25,603.867 V 363.004 l 0.352,-8.859 c 0,-138.09 -109.993,-250.704 -245.59,-250.704 -135.602,0 -245.582,111.907 -245.582,250.004 0,138.262 110.39,250.422 245.582,250.422 H 592.25"
         style="fill:#ffffff;fill-opacity:1;fill-rule:nonzero;stroke:none"
         id="path36" /><path
         d="M 592.25,603.867 V 363.004 l 0.352,-8.859 c 0,-138.09 -109.993,-250.704 -245.59,-250.704 -135.602,0 -245.582,111.907 -245.582,250.004 0,15.399 1.617,30.313 4.136,44.657 95.688,-67.926 228.043,-58.289 313.125,28.875 l 173.559,176.66 v 0.23"
         style="fill:#ffffff;fill-opacity:1;fill-rule:nonzero;stroke:none"
         id="path38" /><path
         d="m 347.012,572.305 c -118.153,0 -214.203,-97.977 -214.203,-218.86 0,-120.422 96.05,-218.175 214.203,-218.175 118.554,0 214.25,97.753 214.25,218.175 v 218.86 h -214.25"
         style="fill:#c0bebf;fill-opacity:1;fill-rule:nonzero;stroke:none"
         id="path40" /><path
         d="m 592.25,603.867 166.914,-170.226 6.867,-6.211 c 95.356,-97.825 95.797,-256.649 0,-354.1995 -96.058,-97.6289 -251.246,-97.6289 -347.34,0 -95.707,97.5505 -95.707,256.1915 0,353.9845 L 592.25,603.867"
         style="fill:#ffffff;fill-opacity:1;fill-rule:nonzero;stroke:none"
         id="path42" /><path
         d="m 441.086,404.762 c -83.844,-85.305 -83.844,-223.903 0,-308.9612 83.449,-85.3399 219.168,-85.3399 303.012,0 83.48,85.0582 83.48,223.6562 0,308.9612 l -6.977,6.394 L 592.25,559.07 441.086,405.047 v -0.285"
         style="fill:#c0bebf;fill-opacity:1;fill-rule:nonzero;stroke:none"
         id="path44" /><path
         d="m 592.25,603.867 h 236.52 l 8.601,0.418 c 135.649,0 245.619,-112.113 245.619,-250.371 C 1082.99,215.57 973.383,103.91 837.785,103.91 702.18,103.91 592.25,215.766 592.25,353.914 v 249.953"
         style="fill:#ffffff;fill-opacity:1;fill-rule:nonzero;stroke:none"
         id="path46" /><path
         d="m 623.555,353.914 c 0,-120.715 95.664,-218.473 214.23,-218.473 118.031,0 213.725,97.758 213.725,218.473 0,120.875 -95.694,218.391 -213.725,218.391 H 623.555 V 353.914"
         style="fill:#c0bebf;fill-opacity:1;fill-rule:nonzero;stroke:none"
         id="path48" /><path
         d="m 592.25,603.867 166.914,170.461 6.477,6.422 c 95.746,97.586 251.269,97.98 346.999,0.441 95.75,-97.836 95.75,-256.168 0,-353.976 -95.73,-97.793 -251.253,-97.793 -346.999,0 L 592.25,603.867"
         style="fill:#ffffff;fill-opacity:1;fill-rule:nonzero;stroke:none"
         id="path50" /><path
         d="m 788.023,449.832 c 83.11,-85.555 218.737,-85.555 302.607,0 83.91,85.156 83.91,223.375 0,308.758 -83.87,85.293 -219.497,85.293 -302.607,0 l -6.871,-6.668 -144.609,-148.055 150.715,-153.851 0.765,-0.184"
         style="fill:#c0bebf;fill-opacity:1;fill-rule:nonzero;stroke:none"
         id="path52" /><path
         d="m 592.25,603.867 v 250.024 c 0,137.988 109.488,250.349 245.535,250.349 135.235,0 244.765,-111.627 244.765,-249.939 0,-138.285 -109.53,-250.434 -244.765,-250.434 H 592.25"
         style="fill:#ffffff;fill-opacity:1;fill-rule:nonzero;stroke:none"
         id="path54" /><path
         d="m 837.785,635.648 c 118.031,0 213.725,97.805 213.725,218.618 0,120.363 -95.694,218.394 -213.725,218.394 -118.566,0 -214.668,-98.031 -214.668,-218.394 l 0.438,-9.356 V 635.648 h 214.23"
         style="fill:#b1b0b0;fill-opacity:1;fill-rule:nonzero;stroke:none"
         id="path56" /><path
         d="m 592.25,603.867 -167.047,170.461 -6.512,6.043 c -95.707,97.965 -95.707,256.639 0,354.199 95.305,97.76 250.911,97.76 346.95,0 95.746,-97.56 95.746,-256.234 0,-353.82 L 592.25,603.867"
         style="fill:#ffffff;fill-opacity:1;fill-rule:nonzero;stroke:none"
         id="path58" /><path
         d="m 743.656,801.109 c 83.446,85.332 83.446,223.821 0,309.021 -83.812,85.26 -219.121,85.26 -302.953,0 -83.894,-85.2 -83.894,-223.689 0,-309.021 l 6.11,-6.543 145.437,-147.668 150.953,153.832 0.453,0.379"
         style="fill:#8c8a8b;fill-opacity:1;fill-rule:nonzero;stroke:none"
         id="path60" /><path
         d="M 592.25,601.824 H 355.938 l -8.926,-0.238 c -135.192,0 -245.582,112.16 -245.582,250.363 0,138.098 109.98,250.221 245.168,250.221 135.613,0 245.652,-112.123 245.652,-250.315 V 601.824"
         style="fill:#ffffff;fill-opacity:1;fill-rule:nonzero;stroke:none"
         id="path62" /><path
         d="m 561.223,851.855 c 0,120.708 -95.696,218.385 -214.625,218.385 -118.082,0 -214.153,-97.677 -214.153,-218.224 0,-120.625 96.071,-218.649 214.153,-218.649 l 9.34,0.246 h 205.285 v 218.242"
         style="fill:#8c8a8b;fill-opacity:1;fill-rule:nonzero;stroke:none"
         id="path64" /><path
         d="M 592.25,601.824 0,601.586 c 0,63.977 23.6055,128.082 72.0898,177.125 95.2812,97.574 250.8942,97.574 346.6012,0 L 592.25,601.824"
         style="fill:#ffffff;fill-opacity:1;fill-rule:nonzero;stroke:none"
         id="path66" /><path
         d="M 396.699,756.254 548.215,601.824 H 347.012 c -108.731,0 -201.207,-72.265 -233.317,-172.695 -6.55,5.793 -13.492,11.672 -19.5427,18.258 -83.9062,85.332 -83.9062,223.336 0,308.867 83.0317,85.199 219.0937,85.199 302.5467,0"
         style="fill:#8c8a8b;fill-opacity:1;fill-rule:nonzero;stroke:none"
         id="path68" /><path
         d="M 397.078,756.07 516.984,633.746 346.445,633.219 c -98.156,0 -180.922,67.238 -206.031,159.051 81.414,46.535 188.039,35.347 256.285,-36.016 l 0.379,-0.184"
         style="fill:#636061;fill-opacity:1;fill-rule:nonzero;stroke:none"
         id="path70" /><path
         d="M 561.293,851.422 561.117,678.398 440.754,801.137 c -69.316,70.836 -81.524,177.98 -35.891,261.013 89.985,-25.7 156.43,-110.041 156.43,-210.271 v -0.457"
         style="fill:#636061;fill-opacity:1;fill-rule:nonzero;stroke:none"
         id="path72" /><path
         d="M 622.633,678.012 V 851.57 c 0,100.016 66.332,184.49 156.433,210.41 45.567,-83.269 36.993,-187.644 -34.523,-259.824 L 622.633,678.012"
         style="fill:#636061;fill-opacity:1;fill-rule:nonzero;stroke:none"
         id="path74" /><path
         d="m 667.363,635.563 120.254,122.941 c 69.278,70.773 174.473,82.734 255.963,36.277 C 1017.86,703.023 939.371,637.105 842.773,635.492 l -175.41,0.071"
         style="fill:#dfdede;fill-opacity:1;fill-rule:nonzero;stroke:none"
         id="path76" /><path
         d="m 667.344,572.426 h 170.207 c 98.152,0 180.849,-66.84 206.129,-158.813 -81.918,-46.695 -187.059,-34.457 -256.645,36.285 L 667.344,572.426"
         style="fill:#a3a1a2;fill-opacity:1;fill-rule:nonzero;stroke:none"
         id="path78" /><path
         d="M 623.535,355.066 V 527.793 L 744.098,405.25 c 69.32,-70.957 81.054,-178.613 35.476,-261.648 -90.023,25.808 -156.039,110.5 -156.039,210.64 v 0.824"
         style="fill:#a3a1a2;fill-opacity:1;fill-rule:nonzero;stroke:none"
         id="path80" /><path
         d="m 441.367,405.18 119.824,122.203 0.27,-173.629 c 0,-100.082 -65.922,-184.184 -155.941,-210.133 -45.602,83.199 -33.395,190.598 35.847,261.211 v 0.348"
         style="fill:#a3a1a2;fill-opacity:1;fill-rule:nonzero;stroke:none"
         id="path82" /><path
         d="M 348.227,572.371 H 517.66 L 397.512,449.656 C 328.34,378.973 222.324,366.777 140.961,413.258 166.547,505.281 249.332,572.371 347.48,572.371 h 0.747"
         style="fill:#a3a1a2;fill-opacity:1;fill-rule:nonzero;stroke:none"
         id="path84" /></g></g></svg>