<?xml version="1.0" encoding="UTF-8" standalone="no"?><svg width="1000" height="500" viewBox="0 0 1000 500" xmlns="http://www.w3.org/2000/svg" xmlns:xlink="http://www.w3.org/1999/xlink"><svg viewBox="0 0 3953.6826171875 3953.683837890625" width="500" height="500" id="alfresco-flower"><g transform="matrix(1.25 0 0 -1.25 1991.55 1691.873)"><text transform="matrix(.8 0 0 -.8 185.96 134.365)" y="76" x="22.25" style="line-height:125%;-inkscape-font-specification:Sans" font-size="56" font-weight="400" letter-spacing="0" word-spacing="0" font-family="Sans"/><path d="M-702.827 1092.708c-347.72 0-629.623-281.88-629.623-629.605 0-347.723 281.903-629.604 629.623-629.604-347.72 0-629.623-281.882-629.623-629.605 0-347.724 281.903-629.605 629.623-629.605s629.6 281.881 629.599 629.605c0-347.724 281.878-629.605 629.599-629.605 347.72 0 629.598 281.881 629.598 629.605 0 347.724-281.878 629.605-629.598 629.605 347.72 0 629.598 281.88 629.598 629.604 0 347.724-281.878 629.605-629.598 629.605-347.72 0-629.6-281.88-629.6-629.605 0 347.724-281.877 629.605-629.598 629.605z" fill="#fff"/><path d="M-1408.827 278.706c-245.875-245.876-245.89-644.532-.013-890.41 245.878-245.878 644.533-245.862 890.408.013-245.875-245.875-245.89-644.531-.013-890.41 245.878-245.877 644.533-245.862 890.408.014 245.875 245.875 245.874 644.514 0 890.392 245.878-245.878 644.515-245.88 890.39-.004 245.876 245.875 245.874 644.514 0 890.391-245.877 245.878-644.515 245.88-890.39.005 245.875 245.876 245.874 644.514 0 890.392-245.877 245.878-644.515 245.88-890.39 0-245.875-245.875-245.873-644.514 0-890.392-245.877 245.878-644.515 245.88-890.39.004z" fill="#fff"/><path d="M556.364 1012.708a554.983 554.983 0 0 1-67.825-4.15c119.779-236.287 80.923-532.357-116.576-729.856L6.759-86.501h549.605c303.541 0 549.605 246.063 549.605 549.604 0 303.541-246.064 549.605-549.605 549.605z" fill="#f99f38"/><path d="M-702.845-1345.711c22.967 0 45.598 1.414 67.825 4.15-119.78 236.287-80.923 532.357 116.576 729.856L-153.24-246.5h-549.604c-303.541 0-549.605-246.064-549.605-549.605 0-303.541 246.064-549.605 549.605-549.605z" fill="#8bc037"/><path d="M-1252.45 463.103c0-22.967 1.414-45.598 4.15-67.825 236.287 119.78 532.357 80.923 729.856-116.576L-153.24-86.502v549.605c0 303.541-246.063 549.605-549.604 549.605-303.542 0-549.605-246.064-549.605-549.605z" fill="#0081c6"/><path d="M1105.969-796.106c0 22.967-1.414 45.598-4.15 67.825-236.287-119.78-532.357-80.923-729.857 116.576L6.76-246.502v-549.604c0-303.541 246.064-549.605 549.605-549.605 303.541 0 549.605 246.064 549.605 549.605z" fill="#8bc037"/><path d="M-461.87 1112.522a554.982 554.982 0 0 1-45.025-50.894C-255.118 979.244-73.24 742.416-73.24 463.11V-53.365l388.63 388.63c214.635 214.635 214.635 562.621-.001 777.257-214.636 214.635-562.622 214.636-777.257 0z" fill="#0081c6"/><path d="M315.388-1445.525a554.964 554.964 0 0 1 45.025 50.895C108.637-1312.247-73.24-1075.42-73.24-796.113v516.475l-388.629-388.63c-214.635-214.635-214.635-562.621 0-777.257 214.636-214.635 562.623-214.635 777.258 0z" fill="#8bc037"/><path d="M-1352.264-555.13a554.99 554.99 0 0 1 50.894-45.026c82.383 251.777 319.212 433.655 598.518 433.654h516.474l-388.628 388.63c-214.636 214.635-562.622 214.635-777.258 0-214.636-214.636-214.636-562.623 0-777.258z" fill="#0081c6"/><path d="M1205.783 222.127a554.951 554.951 0 0 1-50.895 45.026c-82.383-251.777-319.212-433.654-598.517-433.655H39.896L428.525-555.13c214.636-214.636 562.622-214.636 777.258 0 214.635 214.635 214.635 562.622 0 777.257z" fill="#8bc037"/><path d="M406.659 992.048c-230.776-65.187-399.9-277.31-399.9-528.95V26.623l308.625 308.65c177.93 177.93 208.35 447.501 91.275 656.775zM-1231.8 313.398c65.186-230.776 277.31-399.9 528.95-399.9h436.474l-308.65 308.625c-177.93 177.93-447.5 208.35-656.775 91.275z" fill="#0965ad"/><path d="M1085.309-646.411c-65.187 230.775-277.31 399.9-528.95 399.9H119.884l308.65-308.625c177.93-177.93 447.5-208.35 656.775-91.275zM-553.15-1325.062c230.775 65.188 399.9 277.311 399.9 528.95v436.476l-308.626-308.65c-177.93-177.93-208.349-447.501-91.275-656.776z" fill="#48a64a"/><path d="M817.16 383.098c-140.657 0-281.309-53.658-388.626-160.975L119.884-86.502H556.36c251.64 0 463.763 169.124 528.95 399.9-83.052 46.462-175.6 69.7-268.15 69.7z" fill="#ffdf4f"/><path d="M-622.85 723.898c0-140.656 53.658-281.308 160.975-388.625l308.625-308.65v436.475c0 251.64-169.124 463.763-399.9 528.95-46.462-83.052-69.7-175.6-69.7-268.15z" fill="#0965ad"/><path d="M476.36-1056.911c0 140.656-53.659 281.308-160.976 388.625L6.76-359.636v-436.475c0-251.64 169.124-463.763 399.9-528.95 46.462 83.051 69.7 175.6 69.7 268.15zM-963.65-716.111c140.656 0 281.308 53.658 388.625 160.975l308.65 308.625H-702.85c-251.64 0-463.763-169.125-528.95-399.9 83.052-46.462 175.6-69.7 268.15-69.7z" fill="#48a64a"/></g></svg><svg viewBox="0 0 944.2077026367188 265.4733581542969" width="500" height="140.58" id="alfresco-logo" x="500"><g transform="matrix(.13333 0 0 -.13333 0 255.16)"><path d="M2541.45 1385.72l216.06-578.38h-439.89l223.83 578.38zM2035.83 364.871h114.28l134.65 350.77h508.79l136.2-350.77h114.27L2605.68 1493.25h-119.03L2035.83 364.871M3082.37 364.871h98.6V1493.25h-98.6V364.871M3603.31 1180.31h-159.62v71.11c0 22.15.48 42.69 1.54 61.62 1.03 19.02 4.94 35.58 11.73 49.83 6.76 14.2 17.46 25.52 32.06 33.98 14.61 8.41 35.49 12.64 62.66 12.64 11.45 0 22.96-.81 34.46-2.37 11.4-1.58 23.95-3.42 37.5-5.54v85.31c-15.65 2.11-29.69 3.74-42.2 4.7-12.57 1.06-26.12 1.66-40.74 1.66-39.67 0-72.28-5.84-97.86-17.39-25.58-11.58-45.69-27.92-60.27-48.96-14.62-21.14-24.47-46.42-29.76-75.86-5.18-29.52-7.83-61.67-7.83-96.43v-74.3h-137.74v-83.71h137.74V364.871h98.71V1096.6h159.62v83.71M3634.1 364.871h98.64V792.82c0 41.45 7.28 80.41 21.95 116.731 14.58 36.324 35.19 67.406 61.78 93.389 26.7 25.92 58.25 45.94 94.74 59.95 36.51 14.05 77.23 19.93 122.08 17.93v99.49c-73.02 3.17-135.91-11.27-188.64-43.44-52.66-32.2-91.51-81.38-116.61-147.784h-3.1v191.224h-90.84V364.871M4080.45 829.512c4.16 33.879 12.73 66.976 25.84 99.32 13.07 32.523 30.46 61.094 52.41 85.708 21.92 24.64 48.53 44.53 79.92 59.45 31.25 15.03 67.23 22.61 107.96 22.61 39.65 0 75.11-7.58 106.48-22.61 31.31-14.92 57.92-34.81 79.83-59.45 21.86-24.614 38.84-53.04 50.84-84.849 12.01-32.019 18.54-65.39 19.61-100.179h-522.89zm621.49-83.813c2.1 53.91-3.12 107.141-15.69 159.582-12.44 52.5-33.06 98.939-61.81 139.439-28.7 40.42-65.96 73.17-111.94 98.16-45.89 24.97-101.21 37.43-165.92 37.43s-120.03-11.71-165.96-35.09c-45.92-23.38-83.51-54.24-112.72-92.63-29.16-38.27-50.86-81.852-64.99-130.652-14.03-48.86-21.1-98.598-21.1-149.36 0-54.75 7.07-106.769 21.1-156.058 14.13-49.282 35.83-92.598 64.99-129.981 29.21-37.328 66.8-66.898 112.72-88.828 45.93-21.973 101.25-32.84 165.96-32.84 102.26 0 181.3 25.52 237.15 76.609 55.87 51.098 94.23 123.04 115.09 215.758h-98.62c-15.66-62.207-43.82-112.5-84.53-150.968-40.71-38.411-97.07-57.661-169.09-57.661-46.94 0-87.37 9.243-121.34 27.731-33.9 18.551-61.33 42.039-82.21 70.308-20.85 28.262-36.52 60.051-46.88 95.172-10.52 35.129-15.7 69.739-15.7 103.879h621.49M5355.78 941.676c-2.09 44.219-10.97 82.704-26.6 115.374-15.67 32.62-36.79 60.03-63.34 82.16-26.66 22.15-57.48 38.48-92.43 48.98-34.99 10.57-72.85 15.85-113.51 15.85-35.46 0-71.2-4.22-107.24-12.63-36-8.46-68.58-21.67-97.76-39.57-29.34-17.87-53.07-41.63-71.3-71.02-18.26-29.56-27.45-64.92-27.45-105.972 0-34.789 5.73-64.008 17.22-87.746 11.48-23.661 27.45-43.704 47.74-60.012 20.36-16.36 44.12-30.031 71.29-41.121 27.12-11.028 56.85-20.77 89.21-29.199l126.84-28.442c21.88-5.34 43.57-11.558 64.96-18.976 21.41-7.352 40.44-16.563 57.18-27.661 16.69-11.062 29.95-25 39.89-41.863 9.92-16.84 14.91-36.848 14.91-60.109 0-28.41-7.11-52.41-21.12-71.86-14.15-19.558-32.19-35.558-54.03-48.25-21.95-12.558-45.99-21.55-72.05-26.757-26.05-5.364-50.64-7.981-73.62-7.981-65.75 0-120.76 17.117-165.14 51.379-44.35 34.262-68.64 85.102-72.86 152.5h-98.64c8.39-100.148 42.09-173.09 101.04-218.879 59.01-45.812 135.96-68.723 230.93-68.723 37.6 0 75.66 4.442 114.28 13.372 38.6 8.98 73.34 23.16 104.1 42.71 30.78 19.489 56.07 44.758 75.96 75.918 19.78 31.063 29.73 68.661 29.73 112.911 0 35.902-6.77 66.961-20.35 93.339-13.55 26.274-31.04 48.372-52.45 66.301-21.38 17.891-45.91 32.41-73.59 43.492-27.6 11.02-55.62 18.731-83.73 22.899l-131.53 30.058c-16.69 4.18-34.92 9.68-54.79 16.563-19.82 6.789-38.12 15.551-54.77 26.129-16.71 10.422-30.57 23.351-41.56 38.664-10.93 15.246-16.3 33.973-16.3 56.101 0 26.245 5.63 48.505 17.11 66.375 11.42 17.95 26.64 32.41 45.49 43.49 18.69 11.03 39.33 18.88 61.76 23.69 22.47 4.78 44.65 7.07 66.56 7.07 28.16 0 54.74-3.33 79.87-10.28 24.94-6.79 47.22-17.56 66.48-32.38 19.3-14.68 34.72-33.41 46.2-56.11 11.5-22.601 17.69-49.206 18.77-79.784h98.64M6100.06 900.602c-11.48 93.777-47.25 163.848-107.28 210.158-60.1 46.37-133.37 69.55-219.95 69.55-61.65 0-116.14-10.89-163.64-32.85-47.5-21.89-87.46-51.3-119.8-88.09-32.32-36.9-56.8-80.198-73.52-129.979-16.7-49.77-25.07-102.051-25.07-156.813 0-55.75 8.37-108.238 25.07-157.566 16.72-49.293 41.2-92.332 73.52-129.203 32.34-36.879 72.3-66.168 119.8-88.098 47.5-21.973 101.99-32.84 163.64-32.84 90.77 0 165.61 27.938 224.59 83.738 59.01 55.832 95.28 133.25 108.83 232.301h-98.62c-3.09-33.73-11.51-64.789-25.06-93.211-13.6-28.469-30.83-52.937-51.59-73.519-20.9-20.539-44.98-36.649-72.07-48.18-27.07-11.629-55.87-17.391-86.08-17.391-47.01 0-88.26 9.34-123.75 27.911-35.51 18.652-64.92 43.218-88.41 73.679-23.47 30.422-41.2 65.09-53.25 103.781-11.98 38.829-18.03 78.372-18.03 118.598 0 40.301 6.05 79.731 18.03 118.57 12.05 38.692 29.78 73.356 53.25 103.782 23.49 30.46 52.9 55 88.41 73.65 35.49 18.7 76.74 28.02 123.75 28.02 64.65 0 115.57-17.4 152.58-52.14 37.15-34.83 62.37-82.757 75.97-143.858h98.68M6523.66 1096.6c46.97 0 88.25-9.32 123.68-28.02 35.49-18.65 64.95-43.19 88.5-73.65 23.46-30.426 41.22-65.09 53.22-103.782 11.95-38.839 18.04-78.269 18.04-118.57 0-40.226-6.09-79.769-18.04-118.598-12-38.691-29.76-73.359-53.22-103.781-23.55-30.461-53.01-55.027-88.5-73.679-35.43-18.571-76.71-27.911-123.68-27.911-46.96 0-88.2 9.34-123.63 27.911-35.5 18.652-64.96 43.218-88.56 73.679-23.36 30.422-41.17 65.09-53.15 103.781-11.99 38.829-17.96 78.372-17.96 118.598 0 40.301 5.97 79.731 17.96 118.57 11.98 38.692 29.79 73.356 53.15 103.782 23.6 30.46 53.06 55 88.56 73.65 35.43 18.7 76.67 28.02 123.63 28.02zm0 83.71c-61.55 0-116.08-10.89-163.61-32.85-47.45-21.89-87.41-51.3-119.69-88.09-32.43-36.9-56.9-80.198-73.62-129.979-16.67-49.77-25.06-102.051-25.06-156.813 0-55.75 8.39-108.238 25.06-157.566 16.72-49.293 41.19-92.332 73.62-129.203 32.28-36.879 72.24-66.168 119.69-88.098 47.53-21.973 102.06-32.84 163.61-32.84 61.64 0 116.16 10.867 163.63 32.84 47.5 21.93 87.42 51.219 119.81 88.098 32.31 36.871 56.85 79.91 73.53 129.203 16.68 49.328 25.06 101.816 25.06 157.566 0 54.762-8.38 107.043-25.06 156.813-16.68 49.781-41.22 93.079-73.53 129.979-32.39 36.79-72.31 66.2-119.81 88.09-47.47 21.96-101.99 32.85-163.63 32.85M6964.1 1130.2c13.54 0 26.78.43 26.78 15.91 0 12.68-10.41 15.65-21.15 15.65h-20.07v-31.56zm-14.44-49.89h-11.06v90.96h34.18c20.14 0 29.09-8.86 29.09-25.16 0-16.14-10.38-23.31-22.38-25.38l26.49-40.42h-12.78l-25.15 40.42h-18.39zm-48.14 45.51c0-37.66 27.71-67.51 65.1-67.51 37.35 0 65.17 29.85 65.17 67.51 0 37.58-27.82 67.41-65.17 67.41-37.39 0-65.1-29.83-65.1-67.41zm142.23 0c0-44.26-33.54-78.69-77.13-78.69-43.6 0-77.17 34.43-77.17 78.69 0 44.12 33.57 78.66 77.17 78.66 43.59 0 77.13-34.54 77.13-78.66" fill="#73797e"/><path d="M938.328 956.355L673.672 1226.52l-9.609 9.84c-151.688 155.21-398.887 155.21-549.848.6-152.2-154.48-152.2-405.722 0-560.382 150.961-155.066 397.504-155.066 549.137 0l274.976 279.777" fill="#fff"/><path d="M938.328 956.723V575.109l.559-14.027c0-218.793-174.27-397.211-389.102-397.211-214.836 0-389.086 177.301-389.086 396.098 0 219.051 174.899 396.754 389.086 396.754h388.543" fill="#fff"/><path d="M938.328 956.723V575.109l.559-14.027c0-218.793-174.27-397.211-389.102-397.211-214.836 0-389.086 177.301-389.086 396.098 0 219.051 174.899 396.754 389.086 396.754h388.543" fill="#fff"/><path d="M938.328 956.723V575.109l.559-14.027c0-218.793-174.27-397.211-389.102-397.211-214.836 0-389.086 177.301-389.086 396.098 0 24.39 2.563 48.019 6.555 70.75 151.601-107.617 361.297-92.348 496.098 45.75l274.976 279.886v.368" fill="#fff"/><path d="M549.785 906.711c-187.195 0-339.371-155.223-339.371-346.742 0-190.789 152.176-345.66 339.371-345.66 187.832 0 339.442 154.871 339.442 345.66v346.742H549.785" fill="#7dc729"/><path d="M938.328 956.723l264.452-269.692 10.88-9.84c151.07-155 151.77-406.632 0-561.179-152.2-154.692-398.062-154.692-550.308 0-151.633 154.547-151.633 405.898 0 560.84l274.976 279.871" fill="#fff"/><path d="M698.828 641.27c-132.836-135.149-132.836-354.731 0-489.508 132.219-135.192 347.242-135.192 480.072 0 132.27 134.777 132.27 354.359 0 489.508l-11.05 10.128L938.328 885.75l-239.5-244.031v-.449" fill="#7dc729"/><path d="M938.328 956.723h374.732l13.63.664c214.9 0 389.14-177.625 389.14-396.676 0-219.18-173.66-396.09-388.49-396.09-214.85 0-389.012 177.219-389.012 396.09v396.012" fill="#fff"/><path d="M987.926 560.711c0-191.262 151.564-346.141 339.414-346.141 187 0 338.62 154.879 338.62 346.141 0 191.508-151.62 346-338.62 346H987.926v-346" fill="#7dc729"/><path d="M938.328 956.723l264.452 270.067 10.26 10.17c151.69 154.61 398.09 155.24 549.76.7 151.7-155 151.7-405.851 0-560.808-151.67-154.942-398.07-154.942-549.76 0L938.328 956.723" fill="#fff"/><path d="M1248.5 712.68c131.67-135.551 346.56-135.551 479.43 0 132.95 134.922 132.95 353.9 0 489.17-132.87 135.13-347.76 135.13-479.43 0l-10.89-10.56-229.11-234.567 238.78-243.754 1.22-.289" fill="#7dc729"/><path d="M938.328 956.723v396.117c0 218.62 173.472 396.64 389.012 396.64 214.25 0 387.79-176.85 387.79-395.99 0-219.09-173.54-396.767-387.79-396.767H938.328" fill="#fff"/><path d="M1327.34 1007.07c187 0 338.62 154.96 338.62 346.37 0 190.69-151.62 346-338.62 346-187.85 0-340.11-155.31-340.11-346l.696-14.82v-331.55h339.414" fill="#f79427"/><path d="M938.328 956.723L673.672 1226.79l-10.32 9.57c-151.633 155.21-151.633 406.6 0 561.18 150.992 154.88 397.528 154.88 549.688 0 151.69-154.58 151.69-405.97 0-560.58L938.328 956.723" fill="#fff"/><path d="M1178.21 1269.22c132.2 135.19 132.2 354.6 0 489.6-132.79 135.07-347.163 135.07-479.983 0-132.922-135-132.922-354.41 0-489.6l9.675-10.37 230.426-233.95 239.162 243.73.72.59" fill="#3a7fca"/><path d="M938.328 953.488H563.93l-14.145-.383c-214.187 0-389.086 177.695-389.086 396.665 0 218.79 174.25 396.43 388.43 396.43 214.859 0 389.199-177.64 389.199-396.58V953.488" fill="#fff"/><path d="M889.168 1349.62c0 191.24-151.613 346-340.039 346-187.082 0-339.289-154.76-339.289-345.74 0-191.12 152.207-346.42 339.289-346.42l14.801.39h325.238v345.77" fill="#3a7fca"/><path d="M938.328 953.488L0 953.105c0 101.355 37.398 202.925 114.215 280.625 150.961 154.59 397.504 154.59 549.137 0l274.976-280.242" fill="#fff"/><path d="M628.508 1198.15l240.051-244.662H549.785c-172.265 0-318.777-114.5-369.648-273.609-10.383 9.172-21.379 18.492-30.969 28.922C16.23 844 16.23 1062.64 149.168 1198.15c131.551 134.99 347.125 134.99 479.34 0" fill="#3a7fca"/><path d="M629.109 1197.86l189.969-193.8-270.187-.84c-155.512 0-286.645 106.53-326.426 251.99 128.984 73.73 297.918 56.01 406.043-57.06l.601-.29M889.281 1348.93l-.277-274.13-190.703 194.47c-109.821 112.22-129.16 281.97-56.86 413.53 142.571-40.72 247.84-174.34 247.84-333.14v-.73M986.461 1074.19v274.98c0 158.46 105.099 292.3 247.849 333.36 72.19-131.93 58.61-297.3-54.7-411.65l-193.149-196.69" fill="#2b5aac"/><path d="M1057.33 1006.93l190.53 194.79c109.76 112.13 276.42 131.08 405.53 57.47-40.76-145.37-165.1-249.81-318.15-252.36l-277.91.1" fill="#fae033"/><path d="M1057.3 906.91h269.66c155.52 0 286.53-105.898 326.58-251.621-129.78-73.98-296.36-54.59-406.6 57.492L1057.3 906.91M987.895 562.539v273.652L1178.9 642.039c109.83-112.418 128.42-282.98 56.22-414.539-142.63 40.898-247.225 175.07-247.225 333.73v1.309M699.277 641.93l189.844 193.609.426-275.078c0-158.57-104.445-291.82-247.067-332.93-72.25 131.821-52.91 301.969 56.797 413.848v.551M551.711 906.82h268.441L629.793 712.398C520.203 600.41 352.238 581.09 223.332 654.73c40.535 145.801 171.695 252.09 327.195 252.09h1.184" fill="#46ab3d"/></g></svg><svg viewBox="0 0 595.9614868164062 167.5595703125" width="500" height="140.58" id="alfresco-logo-grey" x="500" y="140.58"><g transform="matrix(.13333 0 0 -.13333 0 161.053)"><path d="M1604.1 874.645l136.37-365.067h-277.64l141.27 365.067zm-319.13-644.344h72.13l84.98 221.402h321.14l85.97-221.402h72.12l-276.67 712.215h-75.12l-284.55-712.215M1945.52 230.301h62.23v712.215h-62.23V230.301M2274.32 744.988h-100.75v44.883c0 13.981.31 26.945.98 38.895.65 12.004 3.12 22.461 7.4 31.453 4.27 8.961 11.02 16.109 20.24 21.445 9.22 5.309 22.4 7.981 39.55 7.981 7.22 0 14.49-.508 21.75-1.497 7.19-1 15.11-2.164 23.66-3.496v53.844c-9.87 1.332-18.73 2.363-26.63 2.969-7.93.668-16.49 1.051-25.72 1.051-25.03 0-45.62-3.688-61.76-10.981-16.15-7.308-28.84-17.621-38.04-30.902-9.23-13.344-15.45-29.297-18.78-47.879-3.28-18.637-4.95-38.926-4.95-60.863v-46.903h-86.93v-52.836h86.93V230.301h62.3v461.851h100.75v52.836M2293.76 230.301h62.26v270.113c0 26.164 4.59 50.758 13.85 73.684 9.2 22.922 22.21 42.543 39 58.937 16.85 16.363 36.76 28.996 59.8 37.844 23.04 8.867 48.74 12.582 77.05 11.312v62.797c-46.09 2.004-85.79-7.113-119.06-27.414-33.25-20.324-57.77-51.363-73.61-93.277h-1.96v120.691h-57.33V230.301M2575.48 523.574c2.63 21.387 8.04 42.274 16.32 62.692 8.24 20.527 19.22 38.558 33.07 54.093 13.84 15.551 30.63 28.106 50.45 37.528 19.72 9.48 42.43 14.265 68.14 14.265 25.03 0 47.41-4.785 67.2-14.265 19.77-9.422 36.57-21.977 50.39-37.528 13.8-15.535 24.52-33.476 32.09-53.554 7.58-20.207 11.7-41.274 12.38-63.231h-330.04zm392.27-52.902c1.33 34.031-1.97 67.629-9.9 100.723-7.85 33.14-20.87 62.453-39.01 88.015-18.12 25.512-41.63 46.18-70.66 61.957-28.96 15.762-63.88 23.621-104.72 23.621-40.84 0-75.76-7.386-104.75-22.14-28.98-14.762-52.71-34.239-71.15-58.469-18.4-24.16-32.1-51.664-41.02-82.465-8.85-30.84-13.32-62.23-13.32-94.273 0-34.555 4.47-67.391 13.32-98.5 8.92-31.106 22.62-58.45 41.02-82.043 18.44-23.559 42.17-42.227 71.15-56.063 28.99-13.867 63.91-20.734 104.75-20.734 64.54 0 114.43 16.109 149.68 48.359 35.27 32.25 59.48 77.656 72.64 136.184h-62.24c-9.89-39.27-27.66-71.012-53.35-95.289-25.7-24.242-61.27-36.395-106.73-36.395-29.63 0-55.15 5.828-76.59 17.504-21.4 11.707-38.71 26.531-51.88 44.375-13.17 17.84-23.06 37.906-29.6 60.066-6.64 22.18-9.91 44.024-9.91 65.567h392.27M3380.44 594.371c-1.32 27.91-6.92 52.199-16.79 72.82-9.89 20.59-23.22 37.891-39.98 51.856-16.82 13.98-36.28 24.293-58.34 30.918-22.08 6.672-45.97 10.004-71.64 10.004-22.38 0-44.94-2.664-67.68-7.973-22.73-5.336-43.3-13.676-61.71-24.976-18.52-11.278-33.5-26.274-45-44.829-11.53-18.652-17.33-40.972-17.33-66.882 0-21.961 3.62-40.403 10.87-55.383 7.25-14.938 17.33-27.582 30.13-37.875 12.85-10.328 27.85-18.957 45-25.957 17.12-6.965 35.88-13.11 56.31-18.434l80.06-17.949c13.8-3.367 27.5-7.293 40.99-11.977 13.52-4.644 25.53-10.453 36.1-17.461 10.53-6.976 18.9-15.777 25.17-26.421 6.26-10.629 9.42-23.258 9.42-37.942 0-17.933-4.5-33.074-13.33-45.355-8.94-12.344-20.33-22.446-34.11-30.453-13.85-7.93-29.03-13.598-45.47-16.891-16.45-3.383-31.97-5.031-46.47-5.031-41.5 0-76.22 10.8-104.24 32.425-27.99 21.622-43.32 53.711-45.98 96.254h-62.26c5.29-63.211 26.56-109.254 63.77-138.148 37.25-28.918 85.82-43.375 145.76-43.375 23.73 0 47.76 2.797 72.13 8.437 24.37 5.668 46.29 14.614 65.7 26.957 19.44 12.301 35.39 28.25 47.95 47.918 12.48 19.602 18.76 43.34 18.76 71.27 0 22.656-4.27 42.258-12.84 58.91-8.55 16.582-19.59 30.531-33.1 41.844-13.5 11.297-28.98 20.461-46.45 27.453-17.42 6.957-35.11 11.82-52.85 14.457l-83.02 18.969c-10.54 2.637-22.04 6.113-34.58 10.457-12.51 4.285-24.06 9.812-34.57 16.488-10.55 6.578-19.3 14.742-26.23 24.402-6.9 9.625-10.29 21.446-10.29 35.411 0 16.57 3.55 30.617 10.8 41.894 7.2 11.328 16.81 20.461 28.71 27.453 11.8 6.957 24.82 11.914 38.98 14.949 14.18 3.02 28.19 4.465 42.01 4.465 17.78 0 34.56-2.101 50.41-6.484 15.75-4.289 29.81-11.09 41.97-20.445 12.18-9.262 21.91-21.082 29.16-35.411 7.25-14.265 11.16-31.058 11.84-50.359h62.26M3850.21 568.441c-7.24 59.196-29.82 103.422-67.71 132.653-37.93 29.265-84.18 43.894-138.83 43.894-38.9 0-73.3-6.875-103.28-20.73-29.98-13.82-55.2-32.379-75.61-55.602-20.4-23.289-35.85-50.621-46.41-82.039-10.54-31.414-15.82-64.41-15.82-98.976 0-35.192 5.28-68.317 15.82-99.453 10.56-31.11 26.01-58.278 46.41-81.547 20.41-23.278 45.63-41.77 75.61-55.606 29.98-13.867 64.38-20.734 103.28-20.734 57.3 0 104.53 17.637 141.76 52.859 37.25 35.238 60.14 84.106 68.69 146.621h-62.24c-1.96-21.289-7.27-40.894-15.83-58.828-8.58-17.969-19.45-33.414-32.55-46.406-13.2-12.965-28.39-23.133-45.49-30.41-17.09-7.34-35.26-10.977-54.34-10.977-29.67 0-55.7 5.891-78.1 17.617-22.42 11.77-40.98 27.278-55.8 46.504-14.82 19.203-26.01 41.082-33.62 65.5-7.56 24.512-11.37 49.469-11.37 74.86 0 25.433 3.81 50.328 11.37 74.839 7.61 24.418 18.8 46.297 33.62 65.504 14.82 19.223 33.38 34.711 55.8 46.489 22.4 11.8 48.43 17.679 78.1 17.679 40.81 0 72.95-10.98 96.31-32.906 23.45-21.984 39.37-52.234 47.95-90.805h62.28M4117.58 692.152c29.65 0 55.7-5.879 78.06-17.679 22.41-11.778 41-27.266 55.86-46.489 14.81-19.207 26.02-41.086 33.6-65.504 7.54-24.511 11.38-49.406 11.38-74.839 0-25.391-3.84-50.348-11.38-74.86-7.58-24.418-18.79-46.297-33.6-65.5-14.86-19.226-33.45-34.734-55.86-46.504-22.36-11.726-48.41-17.617-78.06-17.617-29.64 0-55.67 5.891-78.03 17.617-22.41 11.77-41.01 27.278-55.9 46.504-14.74 19.203-25.98 41.082-33.54 65.5-7.57 24.512-11.34 49.469-11.34 74.86 0 25.433 3.77 50.328 11.34 74.839 7.56 24.418 18.8 46.297 33.54 65.504 14.89 19.223 33.49 34.711 55.9 46.489 22.36 11.8 48.39 17.679 78.03 17.679zm0 52.836c-38.85 0-73.26-6.875-103.26-20.73-29.95-13.82-55.18-32.379-75.55-55.602-20.47-23.289-35.92-50.621-46.47-82.039-10.52-31.414-15.82-64.41-15.82-98.976 0-35.192 5.3-68.317 15.82-99.453 10.55-31.11 26-58.278 46.47-81.547 20.37-23.278 45.6-41.77 75.55-55.606 30-13.867 64.41-20.734 103.26-20.734 38.9 0 73.32 6.867 103.28 20.734 29.98 13.836 55.18 32.328 75.62 55.606 20.4 23.269 35.88 50.437 46.41 81.547 10.53 31.136 15.82 64.261 15.82 99.453 0 34.566-5.29 67.562-15.82 98.976-10.53 31.418-26.01 58.75-46.41 82.039-20.44 23.223-45.64 41.782-75.62 55.602-29.96 13.855-64.38 20.73-103.28 20.73M4395.58 713.359c8.54 0 16.9.274 16.9 10.043 0 8.004-6.57 9.879-13.35 9.879h-12.67v-19.922zm-9.12-31.484h-6.98v57.41h21.57c12.72 0 18.36-5.59 18.36-15.883 0-10.183-6.55-14.711-14.12-16.015l16.72-25.512h-8.06l-15.88 25.512h-11.61zm-30.39 28.719c0-23.766 17.49-42.606 41.1-42.606 23.57 0 41.13 18.84 41.13 42.606 0 23.722-17.56 42.551-41.13 42.551-23.61 0-41.1-18.829-41.1-42.551zm89.78 0c0-27.93-21.17-49.66-48.68-49.66-27.52 0-48.71 21.73-48.71 49.66 0 27.851 21.19 49.648 48.71 49.648 27.51 0 48.68-21.797 48.68-49.648" fill="#646162"/><path d="M592.25 603.637L425.203 774.16l-6.062 6.211c-95.743 97.965-251.77 97.965-347.051.379-96.063-97.508-96.063-256.082 0-353.699 95.281-97.875 250.894-97.875 346.601 0L592.25 603.637" fill="#fff"/><path d="M592.25 603.867V363.004l.352-8.859c0-138.09-109.993-250.704-245.59-250.704-135.602 0-245.582 111.907-245.582 250.004 0 138.262 110.39 250.422 245.582 250.422H592.25" fill="#fff"/><path d="M592.25 603.867V363.004l.352-8.859c0-138.09-109.993-250.704-245.59-250.704-135.602 0-245.582 111.907-245.582 250.004 0 138.262 110.39 250.422 245.582 250.422H592.25" fill="#fff"/><path d="M592.25 603.867V363.004l.352-8.859c0-138.09-109.993-250.704-245.59-250.704-135.602 0-245.582 111.907-245.582 250.004 0 15.399 1.617 30.313 4.136 44.657 95.688-67.926 228.043-58.289 313.125 28.875l173.559 176.66v.23" fill="#fff"/><path d="M347.012 572.305c-118.153 0-214.203-97.977-214.203-218.86 0-120.422 96.05-218.175 214.203-218.175 118.554 0 214.25 97.753 214.25 218.175v218.86h-214.25" fill="#c0bebf"/><path d="M592.25 603.867l166.914-170.226 6.867-6.211c95.356-97.825 95.797-256.649 0-354.2-96.058-97.628-251.246-97.628-347.34 0-95.707 97.551-95.707 256.192 0 353.985L592.25 603.867" fill="#fff"/><path d="M441.086 404.762c-83.844-85.305-83.844-223.903 0-308.961 83.449-85.34 219.168-85.34 303.012 0 83.48 85.058 83.48 223.656 0 308.961l-6.977 6.394L592.25 559.07 441.086 405.047v-.285" fill="#c0bebf"/><path d="M592.25 603.867h236.52l8.601.418c135.649 0 245.619-112.113 245.619-250.371 0-138.344-109.607-250.004-245.205-250.004-135.605 0-245.535 111.856-245.535 250.004v249.953" fill="#fff"/><path d="M623.555 353.914c0-120.715 95.664-218.473 214.23-218.473 118.031 0 213.725 97.758 213.725 218.473 0 120.875-95.694 218.391-213.725 218.391h-214.23V353.914" fill="#c0bebf"/><path d="M592.25 603.867l166.914 170.461 6.477 6.422c95.746 97.586 251.269 97.98 346.999.441 95.75-97.836 95.75-256.168 0-353.976-95.73-97.793-251.253-97.793-346.999 0L592.25 603.867" fill="#fff"/><path d="M788.023 449.832c83.11-85.555 218.737-85.555 302.607 0 83.91 85.156 83.91 223.375 0 308.758-83.87 85.293-219.497 85.293-302.607 0l-6.871-6.668-144.609-148.055 150.715-153.851.765-.184" fill="#c0bebf"/><path d="M592.25 603.867v250.024c0 137.988 109.488 250.349 245.535 250.349 135.235 0 244.765-111.627 244.765-249.939 0-138.285-109.53-250.434-244.765-250.434H592.25" fill="#fff"/><path d="M837.785 635.648c118.031 0 213.725 97.805 213.725 218.618 0 120.363-95.694 218.394-213.725 218.394-118.566 0-214.668-98.031-214.668-218.394l.438-9.356V635.648h214.23" fill="#b1b0b0"/><path d="M592.25 603.867L425.203 774.328l-6.512 6.043c-95.707 97.965-95.707 256.639 0 354.199 95.305 97.76 250.911 97.76 346.95 0 95.746-97.56 95.746-256.234 0-353.82L592.25 603.867" fill="#fff"/><path d="M743.656 801.109c83.446 85.332 83.446 223.821 0 309.021-83.812 85.26-219.121 85.26-302.953 0-83.894-85.2-83.894-223.689 0-309.021l6.11-6.543L592.25 646.898 743.203 800.73l.453.379" fill="#8c8a8b"/><path d="M592.25 601.824H355.938l-8.926-.238c-135.192 0-245.582 112.16-245.582 250.363 0 138.098 109.98 250.221 245.168 250.221 135.613 0 245.652-112.123 245.652-250.315V601.824" fill="#fff"/><path d="M561.223 851.855c0 120.708-95.696 218.385-214.625 218.385-118.082 0-214.153-97.677-214.153-218.224 0-120.625 96.071-218.649 214.153-218.649l9.34.246h205.285v218.242" fill="#8c8a8b"/><path d="M592.25 601.824L0 601.586c0 63.977 23.605 128.082 72.09 177.125 95.281 97.574 250.894 97.574 346.601 0L592.25 601.824" fill="#fff"/><path d="M396.699 756.254l151.516-154.43H347.012c-108.731 0-201.207-72.265-233.317-172.695-6.55 5.793-13.492 11.672-19.543 18.258-83.906 85.332-83.906 223.336 0 308.867 83.032 85.199 219.094 85.199 302.547 0" fill="#8c8a8b"/><path d="M397.078 756.07l119.906-122.324-170.539-.527c-98.156 0-180.922 67.238-206.031 159.051 81.414 46.535 188.039 35.347 256.285-36.016l.379-.184M561.293 851.422l-.176-173.024-120.363 122.739c-69.316 70.836-81.524 177.98-35.891 261.013 89.985-25.7 156.43-110.041 156.43-210.271v-.457M622.633 678.012V851.57c0 100.016 66.332 184.49 156.433 210.41 45.567-83.269 36.993-187.644-34.523-259.824l-121.91-124.144" fill="#636061"/><path d="M667.363 635.563l120.254 122.941c69.278 70.773 174.473 82.734 255.963 36.277-25.72-91.758-104.209-157.676-200.807-159.289l-175.41.071" fill="#dfdede"/><path d="M667.344 572.426h170.207c98.152 0 180.849-66.84 206.129-158.813-81.918-46.695-187.059-34.457-256.645 36.285L667.344 572.426M623.535 355.066v172.727L744.098 405.25c69.32-70.957 81.054-178.613 35.476-261.648-90.023 25.808-156.039 110.5-156.039 210.64v.824M441.367 405.18l119.824 122.203.27-173.629c0-100.082-65.922-184.184-155.941-210.133-45.602 83.199-33.395 190.598 35.847 261.211v.348M348.227 572.371H517.66L397.512 449.656c-69.172-70.683-175.188-82.879-256.551-36.398 25.586 92.023 108.371 159.113 206.519 159.113h.747" fill="#a3a1a2"/></g></svg></svg>